<svg xmlns="http://www.w3.org/2000/svg" xmlns:xlink="http://www.w3.org/1999/xlink" width="64" height="64" viewBox="0 0 64 64"><defs><clipPath id="b"><rect width="64" height="64"/></clipPath></defs><g id="a" clip-path="url(#b)"><g transform="translate(6.087 5.186)"><path d="M27.559,48.741s.818,3.118,5.871,3.9,9.857-1.82,12.091-3.894,4.976-7.774,4.3-10.713A5.766,5.766,0,0,0,46.905,34.1a17.809,17.809,0,0,0-.815-8.206c-1.512-3.875-4.22-12.978-10.258-14.949s-9.289,1.069-9.289,1.069a9.36,9.36,0,0,0-4.364-1.245c-1.964.143-5.273,2.058-5.273,2.058a10.074,10.074,0,0,1-3.089-3.557c-1.595-2.7-2.828-1.072-5.026,0S4,13.535,5.975,16.172a46.422,46.422,0,0,0,5.515,7.5S8.211,32.418,9.337,35.39s6.886,7.36,12.914,9.98a36.192,36.192,0,0,0,5.1,1.792Z" transform="translate(-0.262 -0.261)" fill="#fff"/><path d="M35.671,24.393c.183-.489-.448-1.014-.956-1.329a4.687,4.687,0,0,0-5.586.745,3.441,3.441,0,0,0-1.058,2.631c.05.284.166.455.327.508.7.212,1.736-1.721,3.974-2.067a11.219,11.219,0,0,1,1.843-.137C34.732,24.713,35.415,24.793,35.671,24.393Z" transform="translate(-4.885 -3.846)" fill="#090909"/><path d="M43.75,20.417a3.6,3.6,0,0,0-4.616.307,3.277,3.277,0,0,0-.788,1.153c-.187.512-.284,1.139.138,1.384.3.134.7-.1,1.181-.385a6.489,6.489,0,0,1,1.644-.769,12.377,12.377,0,0,1,2.54-.191c.941-.126.481-1.063-.1-1.5Z" transform="translate(-6.065 -3.43)" fill="#090909"/><path d="M50.946,36.637a6.678,6.678,0,0,0-2.967-3.948,18.768,18.768,0,0,0-1-8.316,37.868,37.868,0,0,0-4.2-8.3c-2.213-3.441-5.1-6.333-9.406-6.9-2.546-.374-5.087-.287-7.2,1.151a9.152,9.152,0,0,0-9.216.385C15.626,8.336,13.358,5.19,8.068,7.5,4.9,8.962,1.612,12.926,5.847,18.863c1.672,1.978,1.921,2.875,3.485,4.85a18.54,18.54,0,0,0-1.819,6.366,10.93,10.93,0,0,0,.555,5.651,13.572,13.572,0,0,0,3.782,4.6,31.1,31.1,0,0,0,13.56,7.077c.248,3.6,4.013,6.664,7.715,6.937q.958.088,1.894.088a16.319,16.319,0,0,0,16.1-12.149A11.036,11.036,0,0,0,50.946,36.637Zm-2.968,4.783A13.03,13.03,0,0,1,35.011,51.17c-2.884.078-5.4-1.247-6.208-3.291a9.918,9.918,0,0,0,6.259-1.568c.491-.343.708-.576.655-.674s-.372-.064-.916.07a15.694,15.694,0,0,1-2,.306,17.642,17.642,0,0,1-7.055-.776,35.659,35.659,0,0,1-11.093-5.853A15.076,15.076,0,0,1,10.9,34.391c-.068-.156-.152-.372-.2-.535-.51-1.654.224-5.525.853-7.2a51.374,51.374,0,0,1,3.517,5.756c.226.358.537,1.065.9,1.057.111-.02.2-.15.254-.385a3.669,3.669,0,0,0,.074-1,15.8,15.8,0,0,0-1.73-5.809,42.615,42.615,0,0,0-6.724-9.659A3.787,3.787,0,0,1,8.381,11.1c2.418-2.088,4.164-1.321,5.558,0s2.194,2.782,4.106,5.507c.58.627,2.384,3,2.986,2.7.175-.141.338-.286,0-1.033-.166-.377-.381-.827-.65-1.331-.6-1.153-.878-2.078-1.532-3.258,2.677-1.7,6.267-.559,7.768.191a7.1,7.1,0,0,1,2.675,2.2c.572.667.935,1.04,1.146.96s.236-.638-.024-1.552a6.656,6.656,0,0,0-1.8-2.86,8.066,8.066,0,0,1,6.2,0,8.949,8.949,0,0,1,3.7,2.952c3.126,3.913,6.165,9.608,6.867,14.5a16.29,16.29,0,0,1-.43,6.052A11.386,11.386,0,0,1,43.5,39.644c-.4.633-.759,1.1-.992,1.441s-.328.4-.267.491.373.041.77-.154a6.683,6.683,0,0,0,1.541-1.128,9.444,9.444,0,0,0,2.6-4.065,6.515,6.515,0,0,1,.83,5.192Z" transform="translate(0.004 0)" fill="#090909"/><path d="M2.825,2.227A8.659,8.659,0,0,0,2.134.874,2.392,2.392,0,0,0,1.291.095.914.914,0,0,0-.1.768,1.982,1.982,0,0,0,.071,1.882C1.269,4.314,2.5,6.728,3.73,9.146a3.229,3.229,0,0,0,.278.453c.039.053.133.072.288.149a2.984,2.984,0,0,0,.231-1.929,18.726,18.726,0,0,0-1.7-5.592Z" transform="matrix(0.999, 0.035, -0.035, 0.999, 31.784, 26.684)" fill="#090909"/><path d="M2.1.908a2.011,2.011,0,0,0-.773-1A.854.854,0,0,0-.005.5,1.933,1.933,0,0,0,.05,1.565,36.522,36.522,0,0,1,1.876,8.514c.073.391.2.766.306,1.149A1.954,1.954,0,0,0,2.917,8.02a29.726,29.726,0,0,0-.064-3.911A17.275,17.275,0,0,0,2.1.907Z" transform="matrix(1, 0.017, -0.017, 1, 36.917, 25.695)" fill="#090909"/><path d="M35.292,38.342a12.475,12.475,0,0,0-1.1-1.628,1.969,1.969,0,0,0-.89-.6.87.87,0,0,0-1.227.833,1.707,1.707,0,0,0,.354.961,45.43,45.43,0,0,1,3.655,5.434c.182.308.3.7.808.8a1.915,1.915,0,0,0,.11-1.446,13.036,13.036,0,0,0-1.713-4.358Z" transform="translate(-5.056 -6.009)" fill="#090909"/></g></g></svg>