<svg version="1.1" id="Layer_1" xmlns="http://www.w3.org/2000/svg" xmlns:xlink="http://www.w3.org/1999/xlink" x="0px" y="0px"
	 width="100%" viewBox="0 0 1024 1024" enable-background="new 0 0 1024 1024" xml:space="preserve">
<path fill="#FFFFFF" opacity="1.000000" stroke="none" 
	d="
M347.000000,1025.000000 
	C231.680252,1025.000000 116.360504,1025.000000 1.020376,1025.000000 
	C1.020376,683.720459 1.020376,342.440918 1.020376,1.080678 
	C342.239319,1.080678 683.478699,1.080678 1024.859009,1.080678 
	C1024.859009,342.333282 1024.859009,683.666626 1024.859009,1025.000000 
	C986.907043,1025.000000 948.911438,1025.000000 910.452271,1024.531250 
	C909.338562,1012.684753 909.104919,1001.263916 907.937744,989.939331 
	C906.317871,974.222595 904.583069,958.474487 901.833618,942.927979 
	C898.080505,921.705872 893.648010,900.588623 888.926697,879.556702 
	C881.621033,847.012329 870.269531,815.905334 853.738525,786.853027 
	C837.650696,758.579529 818.858521,732.241699 796.180786,708.817200 
	C787.044922,699.380554 777.529236,690.310486 768.436218,680.833923 
	C751.818542,663.515198 731.799500,649.409668 719.168335,628.302551 
	C714.841919,621.072998 709.018005,615.514832 700.184326,613.596313 
	C697.660156,613.048096 695.231750,610.529358 693.479980,608.338074 
	C691.237305,605.532898 689.626282,602.197144 687.911682,598.999634 
	C677.905701,580.340149 671.125488,560.538696 667.825378,539.647278 
	C665.134033,522.609985 661.581543,506.064941 666.563843,488.173309 
	C673.525635,463.172699 685.524841,440.654388 696.373657,417.528687 
	C700.333313,409.087982 706.489014,401.698212 711.346680,393.650238 
	C714.313293,388.735107 716.773743,383.508545 719.354736,378.368256 
	C721.635498,373.826019 723.849243,369.245972 725.939148,364.613434 
	C727.420959,361.328857 728.124451,357.582336 730.075989,354.639221 
	C739.773987,340.013794 744.892761,324.526550 742.543030,306.601562 
	C741.024353,295.015747 746.298462,284.802979 752.325989,275.162659 
	C758.323730,265.569855 759.273010,255.376663 754.900696,245.018127 
	C752.490601,239.308487 749.397827,233.832321 746.096558,228.575089 
	C744.267822,225.662888 744.076294,223.705719 745.970642,220.689102 
	C752.681152,210.002838 753.680298,198.335663 747.852356,187.314621 
	C744.151428,180.315796 738.415405,174.193054 732.765747,168.496994 
	C729.168396,164.870071 728.512573,161.512619 728.768188,156.729462 
	C729.479553,143.421036 725.809692,131.164230 715.107300,122.733589 
	C707.289429,116.575142 698.182800,112.026649 689.525818,106.974251 
	C686.633972,105.286499 684.489380,103.973404 683.474365,100.068161 
	C680.964844,90.412979 677.337891,81.081802 666.158081,77.814491 
	C665.188416,77.531113 664.429016,75.610802 664.067139,74.312798 
	C661.594421,65.442657 655.833862,59.637100 647.204529,57.048790 
	C633.448547,52.922794 619.478333,52.645065 605.571716,56.383423 
	C601.050781,57.598732 598.237183,57.144020 596.446716,52.103619 
	C594.035645,45.315948 589.001282,40.479103 582.673035,37.019016 
	C570.068909,30.127434 557.731262,30.841032 545.659851,38.322708 
	C543.124268,39.894230 540.709106,41.342644 538.196716,38.449909 
	C528.272827,27.023504 506.545197,22.043978 492.074066,28.284746 
	C487.329254,30.330963 483.016479,30.171404 478.218445,28.848627 
	C473.329468,27.500784 468.152527,25.893843 463.231873,26.241713 
	C453.595764,26.922941 444.663086,30.525160 436.927338,36.487076 
	C434.030670,38.719540 431.508270,39.466232 427.957977,37.806549 
	C425.368805,36.596161 422.260864,36.152802 419.356140,36.029758 
	C412.806580,35.752316 411.580719,37.490658 413.340271,43.744186 
	C413.518585,44.377918 413.993256,44.982655 413.993744,45.601097 
	C413.994843,47.028427 414.303284,49.105621 413.533691,49.714924 
	C412.621094,50.437397 410.545135,50.319794 409.256714,49.826389 
	C404.348511,47.946724 399.698151,45.281464 394.687683,43.804604 
	C384.382965,40.767239 373.655396,39.935493 364.928314,47.193520 
	C359.706146,51.536598 354.043762,54.017612 348.182251,56.924065 
	C340.460388,60.752953 333.683533,66.465439 326.388519,71.195572 
	C324.882965,72.171806 322.436920,73.370323 321.187988,72.798508 
	C313.013947,69.056084 305.525055,70.189079 298.323456,75.048203 
	C287.977997,82.028580 281.090424,91.570992 276.806580,103.269043 
	C274.868835,108.560509 275.692535,114.993210 269.655548,118.768570 
	C265.500763,121.366867 262.176788,125.293755 258.480286,128.627960 
	C254.125549,124.189583 253.555115,117.767235 256.902802,112.545799 
	C257.602539,111.454353 257.732452,109.997536 258.124939,108.709091 
	C256.617615,108.779945 254.972702,108.497383 253.639755,109.016243 
	C252.164291,109.590591 250.826706,110.752670 249.684830,111.910919 
	C244.085785,117.590202 242.053497,124.620384 242.984558,132.338425 
	C243.395340,135.743637 242.204926,137.150375 239.488800,138.806519 
	C213.429367,154.696060 207.589005,177.005447 220.628189,202.823120 
	C217.942276,207.782852 215.002472,212.239182 213.000397,217.083099 
	C205.790787,234.526520 211.040421,259.491272 230.507233,268.153870 
	C232.070709,268.849609 233.329041,271.133484 233.926224,272.944214 
	C236.705551,281.371521 240.651062,289.167328 249.080353,292.840515 
	C261.450073,298.230865 273.595428,298.748199 284.090942,287.354675 
	C283.164886,293.005493 282.076355,298.167053 281.513550,303.385345 
	C280.281281,314.811157 281.334503,325.975861 288.806580,335.258392 
	C294.948639,342.888550 295.634033,344.961823 290.941986,353.536255 
	C289.285248,356.563873 287.428314,359.488525 285.550049,362.387177 
	C274.787140,378.997437 263.938324,395.552429 253.252579,412.212067 
	C251.324097,415.218658 249.699799,418.509125 248.481613,421.866821 
	C243.847992,434.638306 249.675919,446.219971 262.739197,450.151703 
	C266.821167,451.380280 271.145935,451.777313 275.292938,452.820099 
	C282.350372,454.594696 284.503021,458.820435 282.235138,465.888092 
	C281.230316,469.019409 280.095917,472.129242 279.379242,475.329224 
	C276.983521,486.025940 281.625610,494.048920 291.463593,496.518951 
	C283.082794,509.847992 285.730011,519.190613 299.826233,526.032837 
	C306.263702,529.157532 309.031952,534.364258 307.925415,540.872253 
	C307.072021,545.891602 306.158661,550.924683 305.743652,555.990295 
	C304.157043,575.355286 310.821930,588.210693 326.384247,593.429382 
	C334.188782,596.046509 342.775177,597.803040 350.935059,597.554382 
	C364.121613,597.152771 377.244690,594.746338 390.401367,593.245789 
	C395.675201,592.644226 400.963379,591.818848 406.251404,591.768677 
	C415.164795,591.684082 421.747467,598.926697 423.936371,611.182251 
	C426.668610,626.479675 431.783813,640.712830 443.222748,651.638672 
	C450.118256,658.224915 454.800385,665.730225 458.196564,674.565613 
	C463.064819,687.230774 468.480469,699.714172 474.319550,711.961853 
	C476.305298,716.127075 476.278595,719.041870 473.295410,722.150024 
	C471.917542,723.585571 470.380371,724.867737 468.921661,726.226135 
	C460.069855,734.468750 451.927551,743.190491 453.083923,756.537415 
	C453.782776,764.603943 451.877838,771.968689 448.201447,778.938843 
	C439.692383,795.071289 430.839539,811.024292 422.457153,827.221375 
	C397.449097,875.543823 374.571686,924.784363 359.631531,977.314697 
	C355.134033,993.128174 351.194916,1009.100464 347.000000,1025.000000 
z"/>
<path fill="#000000" opacity="1.000000" stroke="none" 
	d="
M347.468628,1025.000000 
	C351.194916,1009.100464 355.134033,993.128174 359.631531,977.314697 
	C374.571686,924.784363 397.449097,875.543823 422.457153,827.221375 
	C430.839539,811.024292 439.692383,795.071289 448.201447,778.938843 
	C451.877838,771.968689 453.782776,764.603943 453.083923,756.537415 
	C451.927551,743.190491 460.069855,734.468750 468.921661,726.226135 
	C470.380371,724.867737 471.917542,723.585571 473.295410,722.150024 
	C476.278595,719.041870 476.305298,716.127075 474.319550,711.961853 
	C468.480469,699.714172 463.064819,687.230774 458.196564,674.565613 
	C454.800385,665.730225 450.118256,658.224915 443.222748,651.638672 
	C431.783813,640.712830 426.668610,626.479675 423.936371,611.182251 
	C421.747467,598.926697 415.164795,591.684082 406.251404,591.768677 
	C400.963379,591.818848 395.675201,592.644226 390.401367,593.245789 
	C377.244690,594.746338 364.121613,597.152771 350.935059,597.554382 
	C342.775177,597.803040 334.188782,596.046509 326.384247,593.429382 
	C310.821930,588.210693 304.157043,575.355286 305.743652,555.990295 
	C306.158661,550.924683 307.072021,545.891602 307.925415,540.872253 
	C309.031952,534.364258 306.263702,529.157532 299.826233,526.032837 
	C285.730011,519.190613 283.082794,509.847992 291.463593,496.518951 
	C281.625610,494.048920 276.983521,486.025940 279.379242,475.329224 
	C280.095917,472.129242 281.230316,469.019409 282.235138,465.888092 
	C284.503021,458.820435 282.350372,454.594696 275.292938,452.820099 
	C271.145935,451.777313 266.821167,451.380280 262.739197,450.151703 
	C249.675919,446.219971 243.847992,434.638306 248.481613,421.866821 
	C249.699799,418.509125 251.324097,415.218658 253.252579,412.212067 
	C263.938324,395.552429 274.787140,378.997437 285.550049,362.387177 
	C287.428314,359.488525 289.285248,356.563873 290.941986,353.536255 
	C295.634033,344.961823 294.948639,342.888550 288.806580,335.258392 
	C281.334503,325.975861 280.281281,314.811157 281.513550,303.385345 
	C282.076355,298.167053 283.164886,293.005493 284.090942,287.354675 
	C273.595428,298.748199 261.450073,298.230865 249.080353,292.840515 
	C240.651062,289.167328 236.705551,281.371521 233.926224,272.944214 
	C233.329041,271.133484 232.070709,268.849609 230.507233,268.153870 
	C211.040421,259.491272 205.790787,234.526520 213.000397,217.083099 
	C215.002472,212.239182 217.942276,207.782852 220.628189,202.823120 
	C207.589005,177.005447 213.429367,154.696060 239.488800,138.806519 
	C242.204926,137.150375 243.395340,135.743637 242.984558,132.338425 
	C242.053497,124.620384 244.085785,117.590202 249.684830,111.910919 
	C250.826706,110.752670 252.164291,109.590591 253.639755,109.016243 
	C254.972702,108.497383 256.617615,108.779945 258.124939,108.709091 
	C257.732452,109.997536 257.602539,111.454353 256.902802,112.545799 
	C253.555115,117.767235 254.125549,124.189583 258.480286,128.627960 
	C262.176788,125.293755 265.500763,121.366867 269.655548,118.768570 
	C275.692535,114.993210 274.868835,108.560509 276.806580,103.269043 
	C281.090424,91.570992 287.977997,82.028580 298.323456,75.048203 
	C305.525055,70.189079 313.013947,69.056084 321.187988,72.798508 
	C322.436920,73.370323 324.882965,72.171806 326.388519,71.195572 
	C333.683533,66.465439 340.460388,60.752953 348.182251,56.924065 
	C354.043762,54.017612 359.706146,51.536598 364.928314,47.193520 
	C373.655396,39.935493 384.382965,40.767239 394.687683,43.804604 
	C399.698151,45.281464 404.348511,47.946724 409.256714,49.826389 
	C410.545135,50.319794 412.621094,50.437397 413.533691,49.714924 
	C414.303284,49.105621 413.994843,47.028427 413.993744,45.601097 
	C413.993256,44.982655 413.518585,44.377918 413.340271,43.744186 
	C411.580719,37.490658 412.806580,35.752316 419.356140,36.029758 
	C422.260864,36.152802 425.368805,36.596161 427.957977,37.806549 
	C431.508270,39.466232 434.030670,38.719540 436.927338,36.487076 
	C444.663086,30.525160 453.595764,26.922941 463.231873,26.241713 
	C468.152527,25.893843 473.329468,27.500784 478.218445,28.848627 
	C483.016479,30.171404 487.329254,30.330963 492.074066,28.284746 
	C506.545197,22.043978 528.272827,27.023504 538.196716,38.449909 
	C540.709106,41.342644 543.124268,39.894230 545.659851,38.322708 
	C557.731262,30.841032 570.068909,30.127434 582.673035,37.019016 
	C589.001282,40.479103 594.035645,45.315948 596.446716,52.103619 
	C598.237183,57.144020 601.050781,57.598732 605.571716,56.383423 
	C619.478333,52.645065 633.448547,52.922794 647.204529,57.048790 
	C655.833862,59.637100 661.594421,65.442657 664.067139,74.312798 
	C664.429016,75.610802 665.188416,77.531113 666.158081,77.814491 
	C677.337891,81.081802 680.964844,90.412979 683.474365,100.068161 
	C684.489380,103.973404 686.633972,105.286499 689.525818,106.974251 
	C698.182800,112.026649 707.289429,116.575142 715.107300,122.733589 
	C725.809692,131.164230 729.479553,143.421036 728.768188,156.729462 
	C728.512573,161.512619 729.168396,164.870071 732.765747,168.496994 
	C738.415405,174.193054 744.151428,180.315796 747.852356,187.314621 
	C753.680298,198.335663 752.681152,210.002838 745.970642,220.689102 
	C744.076294,223.705719 744.267822,225.662888 746.096558,228.575089 
	C749.397827,233.832321 752.490601,239.308487 754.900696,245.018127 
	C759.273010,255.376663 758.323730,265.569855 752.325989,275.162659 
	C746.298462,284.802979 741.024353,295.015747 742.543030,306.601562 
	C744.892761,324.526550 739.773987,340.013794 730.075989,354.639221 
	C728.124451,357.582336 727.420959,361.328857 725.939148,364.613434 
	C723.849243,369.245972 721.635498,373.826019 719.354736,378.368256 
	C716.773743,383.508545 714.313293,388.735107 711.346680,393.650238 
	C706.489014,401.698212 700.333313,409.087982 696.373657,417.528687 
	C685.524841,440.654388 673.525635,463.172699 666.563843,488.173309 
	C661.581543,506.064941 665.134033,522.609985 667.825378,539.647278 
	C671.125488,560.538696 677.905701,580.340149 687.911682,598.999634 
	C689.626282,602.197144 691.237305,605.532898 693.479980,608.338074 
	C695.231750,610.529358 697.660156,613.048096 700.184326,613.596313 
	C709.018005,615.514832 714.841919,621.072998 719.168335,628.302551 
	C731.799500,649.409668 751.818542,663.515198 768.436218,680.833923 
	C777.529236,690.310486 787.044922,699.380554 796.180786,708.817200 
	C818.858521,732.241699 837.650696,758.579529 853.738525,786.853027 
	C870.269531,815.905334 881.621033,847.012329 888.926697,879.556702 
	C893.648010,900.588623 898.080505,921.705872 901.833618,942.927979 
	C904.583069,958.474487 906.317871,974.222595 907.937744,989.939331 
	C909.104919,1001.263916 909.338562,1012.684753 909.994263,1024.531250 
	C722.645752,1025.000000 535.291565,1025.000000 347.468628,1025.000000 
M585.034241,51.666836 
	C585.249695,51.283581 585.465149,50.900330 585.336609,49.897923 
	C579.800537,38.418526 566.410706,34.162502 555.893372,40.749157 
	C563.748779,43.765247 571.446655,46.763855 579.183044,49.659554 
	C581.001526,50.340214 582.949951,50.673492 585.034241,51.666836 
M290.085052,102.514168 
	C297.935883,97.418205 305.786713,92.322235 313.962158,87.015564 
	C308.029205,82.602638 302.717163,82.819328 296.068298,87.935844 
	C290.269745,92.398026 283.387390,96.613098 285.267883,106.431602 
	C286.992706,105.048927 288.272491,104.022995 290.085052,102.514168 
M252.580994,277.190796 
	C254.090744,284.839142 257.517334,286.773254 263.723145,283.585663 
	C260.247955,281.590424 256.722626,279.566406 252.580994,277.190796 
z"/>
<path fill="#F9F9F9" opacity="1.000000" stroke="none" 
	d="
M289.818665,102.755615 
	C288.272491,104.022995 286.992706,105.048927 285.267883,106.431602 
	C283.387390,96.613098 290.269745,92.398026 296.068298,87.935844 
	C302.717163,82.819328 308.029205,82.602638 313.962158,87.015564 
	C305.786713,92.322235 297.935883,97.418205 289.818665,102.755615 
z"/>
<path fill="#F8F8F8" opacity="1.000000" stroke="none" 
	d="
M584.838623,51.166588 
	C582.949951,50.673492 581.001526,50.340214 579.183044,49.659554 
	C571.446655,46.763855 563.748779,43.765247 555.893372,40.749157 
	C566.410706,34.162502 579.800537,38.418526 585.286316,50.354580 
	C585.103577,50.929688 584.971130,51.048141 584.838623,51.166588 
z"/>
<path fill="#F1F1F1" opacity="1.000000" stroke="none" 
	d="
M252.889145,277.366577 
	C256.722626,279.566406 260.247955,281.590424 263.723145,283.585663 
	C257.517334,286.773254 254.090744,284.839142 252.889145,277.366577 
z"/>
<path fill="#F8F8F8" opacity="1.000000" stroke="none" 
	d="
M585.458374,50.664154 
	C585.465149,50.900330 585.249695,51.283581 584.936401,51.416714 
	C584.971130,51.048141 585.103577,50.929688 585.458374,50.664154 
z"/>
</svg>