<svg xmlns="http://www.w3.org/2000/svg" xmlns:xlink="http://www.w3.org/1999/xlink" width="64" height="64" viewBox="0 0 64 64"><defs><clipPath id="b"><rect width="64" height="64"/></clipPath></defs><g id="a" clip-path="url(#b)"><g transform="translate(6.009 -3.539) rotate(9)"><path d="M16.6,27.473c-.925.679-2.6,1.492-3.4,2.185-4.15,3.612-3.8,8.5-.3,12.734a1.783,1.783,0,0,1,.445,1.8,8.276,8.276,0,0,0,2.313,8.294A12.356,12.356,0,0,0,26.33,56.233a8.813,8.813,0,0,0,5.378-2.579c.4-.4.64-.465,1.139-.106a12.166,12.166,0,0,0,9.6,2.338,9.753,9.753,0,0,0,6.893-4.839,1.718,1.718,0,0,1,.807-.723A12.575,12.575,0,0,0,58.6,38.151a12.36,12.36,0,0,0-5.944-10.968,10.608,10.608,0,0,0-7.732-1.4,1.75,1.75,0,0,1-1.179-.229,40.963,40.963,0,0,0-10.762-5.011,24.759,24.759,0,0,1-12.809-8.976,15.14,15.14,0,0,0-3.544-3.478C11.862,4.857,6,6.823,5.158,12.556c-.426,2.911,1.254,5.827,3.055,8.037A32.373,32.373,0,0,0,15.2,26.507c.449.31.9.619,1.4.966Zm9.031,17.363a8.856,8.856,0,0,1-5.115-.635,10.947,10.947,0,0,1-6.322-5.287,5.306,5.306,0,0,1,.355-5.751,10.24,10.24,0,0,1,4.506-3.43.877.877,0,0,1,.768.189c.748.752,1.438,1.563,2.166,2.336a2.2,2.2,0,0,0,.531.314c.112-.2.317-.4.318-.6a3.662,3.662,0,0,0-.167-1.523,9.936,9.936,0,0,0-1.647-2.793,39.43,39.43,0,0,0-4.4-3.755c-2.225-1.668-4.549-3.207-6.283-5.435a6.4,6.4,0,0,1-1.626-4.6c.16-1.709.7-3.263,2.4-4,1.664-.722,3.15-.022,4.371,1.058a23.973,23.973,0,0,1,3.035,3.3A24.908,24.908,0,0,0,30,22.61a63.334,63.334,0,0,1,10.57,4.475c4.578,2.664,7.633,6.376,8.36,11.769a14.811,14.811,0,0,0,.338,1.686.59.59,0,0,0,.35.39c.119.02.349-.162.405-.3a9.356,9.356,0,0,0,.664-1.922,11.529,11.529,0,0,0-2.728-9.38c-.175-.217-.339-.445-.561-.739a9,9,0,0,1,8.127,7.988c.607,4.2-1.571,8.863-4.65,10.111-.111-.861-.226-1.746-.341-2.632l-.348-.058a5.832,5.832,0,0,0-.628.773c-.913,1.618-1.67,3.341-2.728,4.857-3,4.3-9.659,4.7-12.909.861a7.09,7.09,0,0,0,.043-6.1c-.1-.212.1-.564.2-1.022a8.7,8.7,0,0,0,4.555,3.06,3.7,3.7,0,0,0,3.317-.288c-.468-.241-.777-.427-1.106-.567a11.463,11.463,0,0,1-4.371-3.087c-.619-.729-1.139-1.475-.524-2.483a2.79,2.79,0,0,0,.2-.791c.242-.026.457-.043.671-.074a3.642,3.642,0,0,0,3-2.678,3.924,3.924,0,0,0-.158-1.143,5.24,5.24,0,0,0-1.013.381,3.871,3.871,0,0,1-2.3.974c-.3-1.764-.673-3.458-2.581-4.159a.527.527,0,0,0,.02.431,6.628,6.628,0,0,1,.479,4.942,7.673,7.673,0,0,1-3.085,4.772,3.3,3.3,0,0,1-3.574-.018,2.389,2.389,0,0,1-1.089-2.476q.073-4.128.223-8.254a3.212,3.212,0,0,1,2.163-3.1,15.1,15.1,0,0,1,3.175-.7c1.321-.184,2.66-.237,3.99-.371a7.584,7.584,0,0,0,1.039-.254c-.106-.165-.134-.251-.193-.289a1.407,1.407,0,0,0-.43-.228,18.521,18.521,0,0,0-7.358-.68,5.95,5.95,0,0,0-5.171,5.712c-.056.661-.085,1.325-.129,2.024-.386-.1-.7-.207-1.017-.27a4.961,4.961,0,0,0-3.654.365c-.208.124-.329.394-.491.6a5.07,5.07,0,0,0,.673.332c1.188.389,2.39.734,3.568,1.147.67.235.829.71.762,1.468-.228,2.587-.573,5.246,1.874,7.188Zm-9.506.533a3.669,3.669,0,0,1,.41.195,14.759,14.759,0,0,0,5.441,2.178,9.494,9.494,0,0,0,7.312-1.179,21.611,21.611,0,0,1,2.14-1.08,12.841,12.841,0,0,1,.144,2.412,6.429,6.429,0,0,1-5.937,5.425,9.632,9.632,0,0,1-7.151-2.25,5.843,5.843,0,0,1-2.36-5.7Z" transform="translate(-0.133 -0.156)" fill="#0f0f0f"/><path d="M25.546,44.788c-2.446-1.943-2.1-4.6-1.874-7.188.067-.758-.093-1.233-.762-1.468-1.179-.413-2.381-.758-3.568-1.147a5.158,5.158,0,0,1-.673-.332c.162-.2.283-.472.491-.6a4.961,4.961,0,0,1,3.654-.365c.319.063.631.166,1.017.27.044-.7.072-1.363.129-2.024a5.952,5.952,0,0,1,5.171-5.712,18.505,18.505,0,0,1,7.357.68,1.424,1.424,0,0,1,.43.228c.058.039.086.124.193.29a7.847,7.847,0,0,1-1.039.254c-1.329.133-2.669.187-3.989.371a15.246,15.246,0,0,0-3.175.7,3.212,3.212,0,0,0-2.163,3.1q-.144,4.126-.223,8.254a2.389,2.389,0,0,0,1.089,2.476,3.3,3.3,0,0,0,3.574.018,7.672,7.672,0,0,0,3.085-4.772,6.627,6.627,0,0,0-.479-4.942.53.53,0,0,1-.02-.431c1.907.7,2.284,2.395,2.581,4.159a3.878,3.878,0,0,0,2.3-.974,5.247,5.247,0,0,1,1.013-.381,3.938,3.938,0,0,1,.158,1.143,3.64,3.64,0,0,1-3,2.678c-.213.032-.429.048-.671.075a2.782,2.782,0,0,1-.2.791c-.616,1.009-.1,1.755.524,2.483a11.455,11.455,0,0,0,4.371,3.087c.329.139.638.325,1.106.567a3.7,3.7,0,0,1-3.317.288,8.7,8.7,0,0,1-4.555-3.059c-.1.458-.3.81-.2,1.022a7.09,7.09,0,0,1-.043,6.1c3.251,3.842,9.909,3.439,12.909-.861,1.057-1.515,1.814-3.239,2.727-4.857a5.686,5.686,0,0,1,.628-.773l.348.058c.115.886.229,1.77.341,2.632,3.08-1.246,5.258-5.909,4.651-10.111a9,9,0,0,0-8.127-7.988c.223.294.386.521.561.739a11.531,11.531,0,0,1,2.728,9.38,9.359,9.359,0,0,1-.664,1.922c-.057.142-.286.325-.405.3a.589.589,0,0,1-.35-.39,15.015,15.015,0,0,1-.338-1.686c-.728-5.392-3.782-9.1-8.36-11.769a63.333,63.333,0,0,0-10.57-4.475,24.913,24.913,0,0,1-11.477-8.387,23.973,23.973,0,0,0-3.036-3.3c-1.222-1.08-2.708-1.78-4.371-1.058-1.7.737-2.24,2.291-2.4,4a6.4,6.4,0,0,0,1.626,4.6c1.735,2.227,4.058,3.767,6.283,5.435a39.348,39.348,0,0,1,4.4,3.755A9.923,9.923,0,0,1,22.585,30.4a3.663,3.663,0,0,1,.167,1.523c0,.2-.206.4-.318.6a2.228,2.228,0,0,1-.531-.314c-.728-.773-1.418-1.584-2.166-2.336a.878.878,0,0,0-.768-.189,10.228,10.228,0,0,0-4.506,3.43,5.306,5.306,0,0,0-.355,5.751,10.948,10.948,0,0,0,6.322,5.287,8.854,8.854,0,0,0,5.115.635Z" transform="translate(-0.04 -0.105)" fill="#fcfcfc"/><path d="M15.934,44.8a5.843,5.843,0,0,0,2.36,5.7,9.631,9.631,0,0,0,7.151,2.25,6.429,6.429,0,0,0,5.937-5.425,12.861,12.861,0,0,0-.144-2.412A21.756,21.756,0,0,0,29.1,46a9.494,9.494,0,0,1-7.312,1.179A14.759,14.759,0,0,1,16.344,45a3.662,3.662,0,0,0-.41-.195Z" transform="translate(0.066 0.411)" fill="#fcfcfc"/></g></g></svg>