<svg xmlns="http://www.w3.org/2000/svg" xmlns:xlink="http://www.w3.org/1999/xlink" width="64" height="64" viewBox="0 0 64 64"><defs><clipPath id="b"><rect width="64" height="64"/></clipPath></defs><g id="a" clip-path="url(#b)"><g transform="translate(6.486 5.515)"><path d="M27.522,48.83s.809,3.083,5.806,3.861,9.746-1.8,11.956-3.851,4.921-7.687,4.254-10.593a5.7,5.7,0,0,0-2.885-3.894,17.61,17.61,0,0,0-.806-8.114C44.351,22.407,41.673,13.406,35.7,11.456s-9.185,1.057-9.185,1.057A9.255,9.255,0,0,0,22.2,11.282c-1.942.141-5.214,2.035-5.214,2.035s-2.637-3.861-4.213-6.531S9.558.831,6.382,1.663.842,6.745,2.061,10.2c2.073,5.865,9.572,13.848,9.572,13.848S8.39,32.69,9.5,35.629s6.809,7.278,12.769,9.869a35.787,35.787,0,0,0,5.042,1.772Z" transform="translate(-0.27 -0.239)" fill="#fff"/><path d="M35.507,24.709c.18-.476-.441-.989-.941-1.3a4.642,4.642,0,0,0-5.5.726A3.34,3.34,0,0,0,28.03,26.7c.049.277.164.444.322.495.69.206,1.708-1.678,3.91-2.015a11.132,11.132,0,0,1,1.813-.134C34.583,25.021,35.255,25.1,35.507,24.709Z" transform="translate(-4.379 -3.569)" fill="#090909"/><path d="M43.95,20.625a3.732,3.732,0,0,0-4.775.317,3.379,3.379,0,0,0-.815,1.189c-.194.528-.294,1.175.143,1.428.31.138.729-.106,1.222-.4a6.721,6.721,0,0,1,1.7-.793,12.839,12.839,0,0,1,2.627-.2c.973-.13.5-1.1-.1-1.546Z" transform="translate(-5.972 -3.113)" fill="#090909"/><path d="M50.637,36.881a6.6,6.6,0,0,0-2.934-3.9,18.558,18.558,0,0,0-.988-8.223,36.857,36.857,0,0,0-3.907-8.268c-2.188-3.4-5.24-6.99-9.5-7.555a10.353,10.353,0,0,0-7.236,1.712,8.958,8.958,0,0,0-9.05.6C15.712,8.9,14.043,5.957,12.564,3.481,11,.58,7.866-.868,4.748.55a8.158,8.158,0,0,0-4.757,7.9A13.279,13.279,0,0,0,2.323,15.3c.675.995,1.47,1.952,2.231,2.863,1.653,1.956,3.387,3.99,4.933,5.943A18.779,18.779,0,0,0,7.559,30.44a10.47,10.47,0,0,0,.26,5.52,13.493,13.493,0,0,0,3.6,4.674,32.558,32.558,0,0,0,13.963,6.895c.245,3.555,3.67,6.215,7.331,6.485q.947.087,1.873.087A16.222,16.222,0,0,0,50.663,42.191,9.9,9.9,0,0,0,50.637,36.881Zm-3.083,4.457a12.97,12.97,0,0,1-12.971,9.54c-2.852.077-5.041-.858-5.841-2.88A11.6,11.6,0,0,0,35.5,46.541c.485-.339.7-.57.648-.667s-.368-.064-.905.069a20.316,20.316,0,0,1-2.343.4,18.677,18.677,0,0,1-7.184-.954A35.26,35.26,0,0,1,14.75,39.6a14.048,14.048,0,0,1-3.931-4.523c-.067-.154-.15-.368-.2-.529-.5-1.636.445-5.878,1.067-7.537A50.8,50.8,0,0,1,15.163,32.7c.223.354.531,1.053.887,1.045.11-.02.193-.148.251-.38a3.628,3.628,0,0,0,.073-.993,15.627,15.627,0,0,0-1.711-5.744c-1.84-3.79-4.838-7.254-7.637-10.539a27.781,27.781,0,0,1-2.256-2.95A8.757,8.757,0,0,1,3.4,6.624,4.694,4.694,0,0,1,5.129,4.067a3.5,3.5,0,0,1,2.146-.838A2.836,2.836,0,0,1,9.457,4.583c.056.081.287.468.345.563,2.548,4.366,5.27,9.088,8.518,12.645.573.62,2.408,2.586,3,2.291.173-.139.067-.62-.267-1.359-.164-.372-.376-.817-.643-1.316-.59-1.14-1.175-2.185-1.823-3.353a6.585,6.585,0,0,1,8.372.272,20.3,20.3,0,0,1,2.424,2.527c.565.659.925,1.029,1.133.949s.234-.631-.023-1.535a10.178,10.178,0,0,0-2.029-3.683,7.323,7.323,0,0,1,5.867-.127,11.193,11.193,0,0,1,4.043,3.385c3.091,3.869,6.072,9.713,6.766,14.553a16.107,16.107,0,0,1-.425,5.984,14.414,14.414,0,0,1-1.753,3.913c-.4.626-.75,1.091-.981,1.424s-.344.534-.284.628.31.061.7-.131A6.608,6.608,0,0,0,43.926,41.1a12.3,12.3,0,0,0,2.955-4.622,5.787,5.787,0,0,1,.673,4.862Z" transform="translate(0.004 0)" fill="#090909"/><path d="M40.266,34.378a8.563,8.563,0,0,0-.683-1.337,2.366,2.366,0,0,0-.834-.771.9.9,0,0,0-1.372.666,1.96,1.96,0,0,0,.165,1.1c1.185,2.4,2.406,4.792,3.618,7.183a3.193,3.193,0,0,0,.275.448c.039.052.131.071.285.148a2.95,2.95,0,0,0,.228-1.907,18.516,18.516,0,0,0-1.683-5.529Z" transform="translate(-5.841 -5.027)" fill="#090909"/><path d="M45.608,32.068a1.988,1.988,0,0,0-.764-.99.845.845,0,0,0-1.319.582,1.911,1.911,0,0,0,.054,1.058,36.114,36.114,0,0,1,1.806,6.871c.073.387.2.758.3,1.137a1.932,1.932,0,0,0,.727-1.625,29.393,29.393,0,0,0-.063-3.867,17.082,17.082,0,0,0-.743-3.166Z" transform="translate(-6.798 -4.836)" fill="#090909"/><path d="M35.679,38.629a12.336,12.336,0,0,0-1.084-1.61,1.947,1.947,0,0,0-.88-.59.86.86,0,0,0-1.213.824,1.688,1.688,0,0,0,.35.95,44.921,44.921,0,0,1,3.614,5.373c.18.3.3.689.8.792a1.894,1.894,0,0,0,.109-1.43,12.89,12.89,0,0,0-1.694-4.309Z" transform="translate(-5.081 -5.688)" fill="#090909"/></g></g></svg>