<svg xmlns="http://www.w3.org/2000/svg" xmlns:xlink="http://www.w3.org/1999/xlink" width="64" height="64" viewBox="0 0 64 64"><defs><clipPath id="b"><rect width="64" height="64"/></clipPath></defs><g id="a" clip-path="url(#b)"><path d="M27.522,48.83s.809,3.083,5.806,3.861,9.746-1.8,11.956-3.851,4.921-7.687,4.254-10.593a5.7,5.7,0,0,0-2.885-3.894,17.61,17.61,0,0,0-.806-8.114c-.782-2-2.667-8.052-5.038-13.5-.3-3.318.376-6.684-.563-8.9C39.339,1.7,38.583.737,37,.219c-5.971-1.949-6.027,11.85-6.027,11.85S27.93,3.421,25.213-.525c-1.147-1.668-5.378-2.278-6.044-2.23-2.2.348-3.294,4.011-3.51,6.6-.284,3.362,3.131,10.648,3.131,10.648a75.2,75.2,0,0,1-6.015-7.706C11.2,4.116,9.558.831,6.382,1.663S.842,6.745,2.061,10.2c2.073,5.865,9.572,13.848,9.572,13.848s4.192,2.653,3.66,4.339c-.787,2.489-6.531,5.289-5.789,7.246,1.113,2.939,6.809,7.278,12.769,9.869a35.787,35.787,0,0,0,5.042,1.772Z" transform="translate(6.216 6.275)" fill="#fcfcfc"/><path d="M50.637,36.881a6.6,6.6,0,0,0-2.934-3.9,18.558,18.558,0,0,0-.988-8.223c-.9-2.789-2.11-6.6-3.75-9.17-.714-3.182-.625-5.35-1.785-11.062S36.15-3.34,32.611-1.637s-3.156,4.661-3.075,7c-1.382-6.811-2.778-9.4-5.093-10.571S18.716-6.6,15.815-2.66,16.6,9.415,16.6,9.415a70.768,70.768,0,0,0-4.783-6.851C9.362-.3,6.579-.94,3.461.478.328,1.925-1.809,5.062-.052,9.415S7.606,22.127,9.7,24.2s2.96,4.2.518,3.735c-.243,1.811-3.139,6.28-2.394,8.023.777,1.848,3.865,4.275,5.317,5.572,3.989,3.464,7.174,4.806,12.249,6,.245,3.555,3.67,6.215,7.331,6.485q.947.087,1.873.087A16.222,16.222,0,0,0,50.663,42.191,9.9,9.9,0,0,0,50.637,36.881Zm-3.083,4.457a12.97,12.97,0,0,1-12.971,9.54c-2.852.077-5.041-.858-5.841-2.88A11.6,11.6,0,0,0,35.5,46.541c.485-.339.7-.57.648-.667s-.368-.064-.905.069a20.316,20.316,0,0,1-2.343.4,18.677,18.677,0,0,1-7.184-.954,39.636,39.636,0,0,1-6.13-2.613c-1.518-.8-3.429-3-5.032-4.275-1.533-1.264-2.873-1.614-3.737-3.422-.067-.154-.15-.368-.2-.529-.5-1.636.806-3.194,3.938-2.265,3.087,0-.021-6.383-.9-8.079C12,21.5,10.1,19.7,8.357,16.735c-.8-.962-2.357-3.271-3.017-4.324-1.171-1.89-3.666-5.349-1.2-7.619S8.552,2.87,11.817,7.659s4.794,6.056,6.635,9.834c.573.62,2.089,3.133,2.553,2.669s.96-1.324.4-3.535-.933-3.24-2.084-7.832-3.07-9.707.81-10.852,5.1,1.248,7.961,12.617a34.559,34.559,0,0,0,2.122,6.174c.736,1.656,2.385.819,2.475-2.167s-.312-3.076-.6-8.7,4.035-4.928,5.079-3.3c2.381,2.411,2.182,10.918,2.685,13.47,1.51,2.952,4.593,9.522,5.287,14.362a16.107,16.107,0,0,1-.425,5.984,14.414,14.414,0,0,1-1.753,3.913c-.4.626-.75,1.091-.981,1.424s-.344.534-.284.628.31.061.7-.131A6.608,6.608,0,0,0,43.926,41.1a12.3,12.3,0,0,0,2.955-4.622,5.787,5.787,0,0,1,.673,4.862Z" transform="translate(6.49 6.515)" fill="#090909"/><path d="M40.266,34.565a9.594,9.594,0,0,0-.683-1.449,2.452,2.452,0,0,0-.834-.835A.9.9,0,0,0,37.378,33a2.284,2.284,0,0,0,.165,1.193c1.185,2.606,2.406,5.193,3.618,7.784a3.523,3.523,0,0,0,.275.486c.039.057.131.077.285.16a3.441,3.441,0,0,0,.228-2.067,21.318,21.318,0,0,0-1.683-5.992Z" transform="translate(0.627 0.679)" fill="#090909"/><path d="M45.608,32.068a1.988,1.988,0,0,0-.764-.99.845.845,0,0,0-1.319.582,1.911,1.911,0,0,0,.054,1.058,36.114,36.114,0,0,1,1.806,6.871c.073.387.2.758.3,1.137a1.932,1.932,0,0,0,.727-1.625,29.393,29.393,0,0,0-.063-3.867,17.082,17.082,0,0,0-.743-3.166Z" transform="translate(-0.346 0.87)" fill="#090909"/><path d="M36.022,38.706a12.743,12.743,0,0,0-1.2-1.665,2.172,2.172,0,0,0-.976-.61c-.732-.22-1.373.187-1.344.852a1.677,1.677,0,0,0,.388.983,46.4,46.4,0,0,1,4,5.557c.2.315.33.713.885.82a1.84,1.84,0,0,0,.121-1.479,12.824,12.824,0,0,0-1.877-4.456Z" transform="translate(0.869 0.553)" fill="#090909"/><path d="M17.753,2.113A15.792,15.792,0,0,0,6.339.279C.1,1.815-1.108,7.706.783,10.592S6.789,13.6,9.89,14.472a34.32,34.32,0,0,1,9.517,4.78C22.5,21.361,17.753,2.113,17.753,2.113Z" transform="matrix(0.966, -0.259, 0.259, 0.966, -0.35, 37.114)"/><path d="M15.238,2.975C11.472,2.061,10.009-.412,5.086.063S-1.04,4.809.847,6.544,5.195,8.2,8.068,9.148c1.678.545,3.588,1.72,5.67,2.187a9.72,9.72,0,0,1,4.02,2.215C19.847,15,24.563-.287,20.232.862c.594,2.107-.2,3.742-1.212,3.412A11.449,11.449,0,0,0,15.238,2.975Z" transform="translate(4.265 39.034) rotate(-13)" fill="#fcfcfc"/><path d="M3.5,0C5.433,0,6.943.883,6.943,1.511s-1.51.765-3.443.765S.009,2.14.009,1.511,1.567,0,3.5,0Z" transform="matrix(0.921, -0.391, 0.391, 0.921, 30.865, 27.445)" fill="#090909"/><path d="M2.39,0C3.708,0,4.738.721,4.738,1.233s-1.03.624-2.348.624S.009,1.746.009,1.233,1.072,0,2.39,0Z" transform="matrix(1, -0.017, 0.017, 1, 41.998, 24.304)" fill="#090909"/></g></svg>