<svg xmlns="http://www.w3.org/2000/svg" xmlns:xlink="http://www.w3.org/1999/xlink" width="64" height="64" viewBox="0 0 64 64"><defs><clipPath id="b"><rect width="64" height="64"/></clipPath></defs><g id="a" clip-path="url(#b)"><g transform="translate(-16.566 19.726) rotate(-30)"><path d="M28.29,58.352c-4.771-.873-7.134-4.234-8.65-8.34-1.053-2.854-1.729-5.847-2.779-8.7-1.149-3.125-2.575-6.148-3.8-9.245-1.1-2.768-2.316-5.516-2.613-8.526a7.35,7.35,0,0,1,6.473-8.212,5.968,5.968,0,0,1,6.442,4.364c.606,1.987,1.1,4.009,1.7,6.227,2.981-3.8,6.584-4.448,10.933-2.614-.9-2.877-1.713-5.532-2.562-8.176A17.718,17.718,0,0,1,32.2,9.033c.134-3.609,2.145-6.231,5.44-7.041A7.05,7.05,0,0,1,45.885,5.75a30.442,30.442,0,0,1,1.906,6.517c.725,3.352,1.195,6.759,1.908,10.114a33.187,33.187,0,0,0,3.621,9.059A39.285,39.285,0,0,1,55.9,37.746a7.742,7.742,0,0,1-.645,6.163,60.446,60.446,0,0,1-3.546,5.577c-.285.424-.467.647-.054,1.123,1.918,2.209,1.952,4.663.682,7.162a14.118,14.118,0,0,1-7.05,6.27,16.951,16.951,0,0,1-10.748,1.6,10.943,10.943,0,0,1-3.695-1.523A5.8,5.8,0,0,1,28.29,58.352Zm20.475-18.34a9.664,9.664,0,0,1-.91,1.138,3.6,3.6,0,0,1-4.531.238c-.258-.163-.588-.445-.813-.389a16.713,16.713,0,0,0-3.464,1.073c-2.073,1.048-3,2.969-3.422,5.172-.122.641-.248,1.281-.406,2.1a4.157,4.157,0,0,1-1.371-3.7,27.464,27.464,0,0,1,.793-3.658c-4,1.546-6.779-.1-8.665-3.78-1.76,1.4-3.253,1.759-4.233.972.492-.332.963-.648,1.433-.967,1.436-.975,1.662-1.5,1.162-3.149-.845-2.793-1.764-5.563-2.608-8.356-.575-1.9-1.033-3.845-1.616-5.747a2.737,2.737,0,0,0-4.674-1.377,4.929,4.929,0,0,0-1.4,2.4,5.164,5.164,0,0,0,.159,2.73c.993,2.944,2.052,5.871,3.231,8.745A80.516,80.516,0,0,1,21.716,45.19a35.277,35.277,0,0,0,2.153,6.358c1.26,2.769,3.391,4.675,6.635,4.493a22.393,22.393,0,0,0,4.421-1.148l1.237-.335a6.5,6.5,0,0,1-3.408,3.017,1.455,1.455,0,0,0-.983,1.366,2.224,2.224,0,0,0,1.063,2.3,8.15,8.15,0,0,0,2.566.99,14.255,14.255,0,0,0,10.069-2.284,9.741,9.741,0,0,0,3.868-3.9,2.485,2.485,0,0,0-.811-3.494,13.112,13.112,0,0,1-6.285,2.455,6.294,6.294,0,0,1-5.076-1.514,2.741,2.741,0,0,1-.405-.818,3.269,3.269,0,0,1,.848-.306,20.936,20.936,0,0,0,3.144-.156C46.6,50.885,50.233,47.048,52.4,41.651a4.461,4.461,0,0,0,0-3.383c-.354-.894-.575-1.848-1-2.7a53.588,53.588,0,0,0-2.831-5.2c-.813-1.258-1.548-1.437-2.893-.84q-4.2,1.868-8.317,3.946c-1.34.677-1.517,1.614-.816,2.981a3.75,3.75,0,0,0,4.775,1.805,51.326,51.326,0,0,0,5.1-2.128,5.392,5.392,0,0,1,.855-.209,2.589,2.589,0,0,1-.055.908,6.118,6.118,0,0,1-.847,1.383c-.436.526-.958.982-1.475,1.5,1.15.853,2.4.084,3.858.3ZM33.9,38.976c-1.918-4.181-1.661-5.931,1.322-8.378l-1.446-2.553a4.38,4.38,0,0,1,2.781,1.763c3.607-1.089,6.525-3.744,10.276-4.186-.454-2.216-.906-4.378-1.34-6.543-.668-3.331-1.274-6.675-2.018-9.989a6.653,6.653,0,0,0-1.253-2.541A3.522,3.522,0,0,0,38.3,5.432a3.226,3.226,0,0,0-2.511,2.845,8.464,8.464,0,0,0,.011,2.754c.686,3.491,1.6,6.942,2.169,10.449A25.827,25.827,0,0,1,37.984,27a5.745,5.745,0,0,1-.753,1.773l-.417.043c.388-2.344-1.381-2.4-2.735-2.9a6.167,6.167,0,0,0-.835-.216,4.515,4.515,0,0,0-5.767,4.636,15.294,15.294,0,0,0,2.175,7.391c.991,1.746,2.378,2.094,4.247,1.241Z" fill="#0f0f0f"/><path d="M48.439,38.435c-1.463-.218-2.708.551-3.858-.3.517-.52,1.038-.976,1.475-1.5a6.112,6.112,0,0,0,.847-1.383,2.591,2.591,0,0,0,.055-.908,5.5,5.5,0,0,0-.855.209A51.34,51.34,0,0,1,41,36.679a3.75,3.75,0,0,1-4.775-1.805c-.7-1.366-.524-2.3.816-2.981q4.108-2.075,8.317-3.946c1.344-.6,2.08-.418,2.893.84a53.651,53.651,0,0,1,2.83,5.2c.426.855.647,1.81,1,2.7a4.462,4.462,0,0,1,0,3.383c-2.169,5.4-5.806,9.233-11.651,10.562a20.727,20.727,0,0,1-3.144.156,3.237,3.237,0,0,0-.848.306,2.742,2.742,0,0,0,.405.818,6.294,6.294,0,0,0,5.076,1.514A13.123,13.123,0,0,0,48.2,50.975a2.485,2.485,0,0,1,.811,3.494,9.735,9.735,0,0,1-3.868,3.9,14.255,14.255,0,0,1-10.069,2.284,8.166,8.166,0,0,1-2.565-.99,2.224,2.224,0,0,1-1.063-2.3A1.454,1.454,0,0,1,32.428,56a6.5,6.5,0,0,0,3.407-3.017l-1.237.335a22.33,22.33,0,0,1-4.421,1.148c-3.244.181-5.375-1.724-6.635-4.493a35.272,35.272,0,0,1-2.153-6.358,80.539,80.539,0,0,0-4.283-11.726c-1.179-2.874-2.237-5.8-3.231-8.745a5.173,5.173,0,0,1-.159-2.73,4.919,4.919,0,0,1,1.4-2.4,2.737,2.737,0,0,1,4.674,1.377c.583,1.9,1.04,3.843,1.616,5.747.843,2.793,1.763,5.563,2.608,8.356.5,1.652.274,2.174-1.162,3.149-.47.318-.94.635-1.433.967.98.787,2.473.432,4.233-.973,1.885,3.683,4.669,5.327,8.665,3.78a27.474,27.474,0,0,0-.793,3.658,4.154,4.154,0,0,0,1.371,3.7c.159-.821.285-1.461.406-2.1.419-2.2,1.348-4.125,3.422-5.172a16.706,16.706,0,0,1,3.464-1.073c.225-.056.556.226.813.389a3.6,3.6,0,0,0,4.531-.238,9.656,9.656,0,0,0,.91-1.138Z" transform="translate(0.327 1.577)" fill="#fcfcfc"/><path d="M32.315,38.651c-1.868.853-3.256.505-4.247-1.241a15.3,15.3,0,0,1-2.175-7.391,4.515,4.515,0,0,1,5.767-4.636,6.121,6.121,0,0,1,.835.216c1.353.493,3.123.552,2.735,2.9l.417-.043a5.748,5.748,0,0,0,.753-1.773,25.819,25.819,0,0,0-.01-5.524C35.817,17.647,34.907,14.2,34.22,10.7a8.464,8.464,0,0,1-.011-2.754A3.225,3.225,0,0,1,36.72,5.105a3.522,3.522,0,0,1,3.916,1.117,6.656,6.656,0,0,1,1.253,2.541c.744,3.314,1.351,6.658,2.018,9.989.434,2.165.885,4.327,1.34,6.543-3.752.442-6.67,3.1-10.276,4.186a4.384,4.384,0,0,0-2.781-1.763l1.446,2.553c-2.983,2.447-3.239,4.2-1.322,8.378Zm11-15.236a3.965,3.965,0,0,0-3.853-.527c-.8.207-1.567.517-1.8,1.463C38.983,24.914,42.461,24.366,43.319,23.415Z" transform="translate(1.586 0.325)" fill="#fbfbfa"/><path d="M42.219,21.771c-.858.951-4.336,1.5-5.652.937.232-.947,1-1.255,1.8-1.463A3.961,3.961,0,0,1,42.219,21.771Z" transform="translate(2.679 1.969)" fill="#0f0f0f"/></g></g></svg>